# xmcd
#
# Track frame offsets:
# 150
# 12075
# 31600
# 45375
# 64750
# 76500
# 94600
# 111900
# 123525
# 140988
# 158688
# 177675
# 197125
# 208600
# 226813
# 241738
#
# Disc length: 3448 seconds
#
#
# Revision: 4
# Processed by: cddbd v1.5.1PL0 Copyright (c) Steve Scherf et al.
# Submitted via: FreeRIP 2.80 
#
DISCID=c90d7610
DTITLE=Various Artist - Soul Collection - Vol. 3
DYEAR=1900
DGENRE=Soul
TTITLE0=Martha Reeves - Dancing In The Street
TTITLE1=Jean, Sherrie and Linda Of The Supremes - Stop! In The Name Of Love
TTITLE2=Eddie Floyd - Knock On Wood
TTITLE3=Carolyn Crawford - Cry To Me
TTITLE4=The Platters - The Great Pretender
TTITLE5=The Velvettes - One Door Closes Another Opens
TTITLE6=Fantastic Four - Sidestepping
TTITLE7=Ben E. King and The Drifters - Up On The Roof
TTITLE8=Billy Ocean - On The Run
TTITLE9=Bobby Womack - Harry Hippie
TTITLE10=The Marvelettes - Secret Love Affair
TTITLE11=Bobby Taylor and The Vancouvers - You Haven't Seen My Love
TTITLE12=Percy Sledge - (Sitting On) The Dock Of The Bay
TTITLE13=Kim Weston - Who's Gonna Have The Last Laugh
TTITLE14=Harold Melvin and The Blue Notes - Satisfaction Guaranteed
TTITLE15=Gladys Knight and The Pips - Best Thing That Ever Happened To Me
EXTD=
EXTT0=
EXTT1=
EXTT2=
EXTT3=
EXTT4=
EXTT5=
EXTT6=
EXTT7=
EXTT8=
EXTT9=
EXTT10=
EXTT11=
EXTT12=
EXTT13=
EXTT14=
EXTT15=
PLAYORDER=
